<svg width="24" height="24" viewBox="0 0 24 24" fill="none" xmlns="http://www.w3.org/2000/svg">
  <path d="M12 2C6.477 2 2 6.477 2 12c0 1.821.487 3.53 1.338 5.001L2 22l5.001-1.338C8.47 21.513 10.179 22 12 22c5.523 0 10-4.477 10-10S17.523 2 12 2zm5.334 14.334c-.181.5-.936 1.831-1.866 2.335-.933.504-2.151.504-2.151.504s-1.218 0-2.151-.504c-.93-.504-1.685-1.835-1.866-2.335-.181-.5-.272-1.168.181-1.621.453-.453 1.121-.362 1.621-.181.5.181 1.138.619 1.138.619s.638-.438 1.138-.619c.5-.181 1.168-.272 1.621.181.453.453.362 1.121.181 1.621z" fill="#25D366"/>
  <path d="M8.5 12.5c0 .828-.672 1.5-1.5 1.5s-1.5-.672-1.5-1.5.672-1.5 1.5-1.5 1.5.672 1.5 1.5zm7 0c0 .828-.672 1.5-1.5 1.5s-1.5-.672-1.5-1.5.672-1.5 1.5-1.5 1.5.672 1.5 1.5zm-3.5 2.5c0 .828-.672 1.5-1.5 1.5s-1.5-.672-1.5-1.5.672-1.5 1.5-1.5 1.5.672 1.5 1.5z" fill="white"/>
</svg>
